# xmcd
#
# Track frame offsets:
#	150
#	12457
#	28067
#	42061
#	56437
#	72496
#	84611
#	103081
#	118504
#	135748
#	148241
#
# Disc length: 2155 seconds
#
# Revision: 1
# Processed by: cddbd v1.5.2PL0 Copyright (c) Steve Scherf et al.
# Submitted via: audiograbber 1.83.01
#
DISCID=9d08690b
DTITLE=RED RIVER REVIVAL - ELECTRON TUBES
DYEAR=1900
DGENRE=
TTITLE0=LODI
TTITLE1=GET YOU ALONE
TTITLE2=CRAZY LITTLE THING
TTITLE3=HEART OF GOLD
TTITLE4=HONKY TONK MAN
TTITLE5=LOVE REUNITED
TTITLE6=OLITARY MAN
TTITLE7=WALK OF LIFE
TTITLE8=WHEN MORNING COMES TO AMERICA
TTITLE9=BE GOOD TO ME
TTITLE10=SUN DOWN
EXTD=
EXTT0=
EXTT1=
EXTT2=
EXTT3=
EXTT4=
EXTT5=
EXTT6=
EXTT7=
EXTT8=
EXTT9=
EXTT10=
PLAYORDER=
